<svg width="122" height="32" viewBox="0 0 122 32" fill="none" xmlns="http://www.w3.org/2000/svg">
<path d="M3.78001 28.02C0.480006 25.02 0 20.58 0 15.6C0 10.62 0.660004 6.42 3.66 3.3C5.76 1.14 9.12 0 12.54 0C15.66 0 18.48 0.899993 20.4 2.69999C22.44 4.55999 23.7 7.25999 23.7 10.2C23.7 10.92 23.28 11.4 22.68 11.4H19.5C18.84 11.4 18.36 10.98 18.36 10.44C18.36 8.94 17.7 7.55999 16.56 6.65999C15.54 5.81999 14.1 5.4 12.54 5.4C10.32 5.4 8.21999 6.18 7.13999 7.62C5.87999 9.3 5.58 11.4 5.58 15.6C5.58 19.08 5.76 21.72 7.08 23.4C8.28 24.96 10.26 25.8 12.6 25.8C14.22 25.8 15.72 25.38 16.8 24.48C17.88 23.58 18.42 22.26 18.42 20.82C18.42 20.16 18.84 19.8 19.56 19.8H22.98C23.58 19.8 23.88 20.22 23.88 21C23.88 24.12 22.56 26.94 20.22 28.8C18.3 30.36 15.54 31.2 12.6 31.2C9.17999 31.2 6.06001 30.12 3.78001 28.02Z" fill="#FFF3E1"/>
<path d="M32.2803 21.66C32.2803 15.66 36.2403 12.48 43.0803 12.48H49.5003C49.8603 12.48 50.1003 12.24 50.1003 11.88V9.42C50.1003 6.36 48.1203 4.73999 44.5203 4.73999C40.9203 4.73999 39.0003 6.17999 39.0003 8.75999C39.0003 9.47999 38.5803 9.77999 37.6203 9.77999H34.8603C34.0803 9.77999 33.6603 9.36 33.6603 8.58C33.6603 3.18 37.6803 0 44.5803 0C51.4803 0 55.5003 3.3 55.5003 9.6V29.4C55.5003 30.06 54.9603 30.6 54.3003 30.6H52.2603C51.9003 30.6 51.6003 30.48 51.4203 30.18C51.1203 29.64 50.8203 28.92 50.2203 28.92C49.1403 28.92 47.6403 31.2 43.2003 31.2C36.6003 31.2 32.2803 27.42 32.2803 21.66ZM50.5803 19.92V18C50.5803 17.64 50.3403 17.4 49.9803 17.4H43.6803C39.7203 17.4 37.8603 18.72 37.8603 21.54C37.8603 24.6 39.8403 26.22 43.6203 26.22C48.3603 26.22 50.5803 24.18 50.5803 19.92Z" fill="#FFF3E1"/>
<path d="M65.7598 21.48C65.7598 20.1 66.0598 19.62 66.9598 19.62H69.9598C70.6198 19.62 71.0998 20.04 71.1598 20.82C71.5198 24.06 73.3798 26.04 77.9398 26.04C81.7798 26.04 84.0598 24.72 84.0598 22.08C84.0598 19.44 82.4398 18.48 77.1598 17.58C70.1398 16.38 66.9598 13.56 66.9598 8.58C66.9598 3.6 71.4598 0 77.7598 0C84.5998 0 88.7998 3.24 88.7998 8.46C88.7998 9.72 88.4398 10.2 87.5998 10.2H84.5998C83.9398 10.2 83.4598 9.72 83.3998 9C83.1598 6.36 81.4198 5.1 77.9398 5.1C74.4598 5.1 72.5398 6.3 72.5398 8.4C72.5398 10.62 74.3398 11.7 79.6798 12.78C86.7598 14.16 89.4598 16.74 89.4598 22.08C89.4598 27.42 85.1398 31.2 78.2998 31.2C70.7998 31.2 65.7598 27.66 65.7598 21.48Z" fill="#FFF3E1"/>
<path d="M98.2725 21.66C98.2725 15.66 102.232 12.48 109.072 12.48H115.492C115.852 12.48 116.092 12.24 116.092 11.88V9.42C116.092 6.36 114.112 4.73999 110.512 4.73999C106.912 4.73999 104.992 6.17999 104.992 8.75999C104.992 9.47999 104.572 9.77999 103.612 9.77999H100.852C100.072 9.77999 99.6525 9.36 99.6525 8.58C99.6525 3.18 103.672 0 110.572 0C117.472 0 121.492 3.3 121.492 9.6V29.4C121.492 30.06 120.952 30.6 120.292 30.6H118.252C117.892 30.6 117.592 30.48 117.412 30.18C117.112 29.64 116.812 28.92 116.212 28.92C115.132 28.92 113.632 31.2 109.192 31.2C102.592 31.2 98.2725 27.42 98.2725 21.66ZM116.572 19.92V18C116.572 17.64 116.332 17.4 115.972 17.4H109.672C105.712 17.4 103.852 18.72 103.852 21.54C103.852 24.6 105.832 26.22 109.612 26.22C114.352 26.22 116.572 24.18 116.572 19.92Z" fill="#FFF3E1"/>
</svg>
