<svg width="157" height="45" viewBox="0 0 157 45" fill="none" xmlns="http://www.w3.org/2000/svg">
<path d="M5.82002 41.8604C5.34002 41.8604 4.98004 42.1604 4.62004 43.1204C4.50004 43.4204 4.26004 43.5404 3.78004 43.5404H1.74002C1.08002 43.5404 0.540039 43.0004 0.540039 42.3404V2.14043C0.540039 1.48043 1.08002 0.94043 1.74002 0.94043H4.74002C5.40002 0.94043 5.94005 1.48043 5.94005 2.14043V12.9404C5.94005 14.3204 6.24005 14.8604 7.02005 14.8604C8.10005 14.8604 9.36002 12.9404 13.32 12.9404C17.28 12.9404 20.7601 14.8004 22.5001 18.0404C23.8201 20.5004 24.4201 23.7404 24.4201 28.5404C24.4201 33.3404 23.94 36.4004 22.56 38.9804C20.82 42.2204 17.2201 44.1404 12.8401 44.1404C7.98006 44.1404 7.08002 41.8604 5.82002 41.8604ZM17.94 35.9804C18.96 34.1204 19.0201 32.0204 19.0201 28.5404C19.0201 25.0604 18.9 22.9604 17.94 21.1004C16.98 19.2404 14.82 18.3404 12.3 18.3404C9.78003 18.3404 7.68002 19.2404 6.66002 21.1004C5.64002 22.9604 5.58002 25.0604 5.58002 28.5404C5.58002 32.0204 5.64002 34.1204 6.66002 35.9804C7.68002 37.8404 9.78003 38.7404 12.3 38.7404C14.82 38.7404 16.92 37.8404 17.94 35.9804Z" fill="#FFF3E1"/>
<path d="M32.2803 34.6004C32.2803 28.6004 36.2402 25.4204 43.0802 25.4204H49.5003C49.8603 25.4204 50.1003 25.1804 50.1003 24.8204V22.3604C50.1003 19.3004 48.1203 17.6804 44.5203 17.6804C40.9203 17.6804 39.0003 19.1204 39.0003 21.7004C39.0003 22.4204 38.5803 22.7204 37.6203 22.7204H34.8603C34.0803 22.7204 33.6602 22.3004 33.6602 21.5204C33.6602 16.1204 37.6802 12.9404 44.5802 12.9404C51.4802 12.9404 55.5003 16.2404 55.5003 22.5404V42.3404C55.5003 43.0004 54.9603 43.5404 54.3003 43.5404H52.2603C51.9003 43.5404 51.6003 43.4204 51.4203 43.1204C51.1203 42.5804 50.8203 41.8604 50.2203 41.8604C49.1403 41.8604 47.6403 44.1404 43.2003 44.1404C36.6003 44.1404 32.2803 40.3604 32.2803 34.6004ZM50.5802 32.8604V30.9404C50.5802 30.5804 50.3403 30.3404 49.9803 30.3404H43.6803C39.7203 30.3404 37.8603 31.6604 37.8603 34.4804C37.8603 37.5404 39.8403 39.1604 43.6203 39.1604C48.3603 39.1604 50.5802 37.1204 50.5802 32.8604Z" fill="#FFF3E1"/>
<path d="M73.44 25.9004V42.3404C73.44 43.0004 72.9 43.5404 72.24 43.5404H69.24C68.58 43.5404 68.04 43.0004 68.04 42.3404V14.7404C68.04 14.0804 68.58 13.5404 69.24 13.5404H71.58C71.94 13.5404 72.3001 13.6604 72.4201 13.9604C72.7801 14.8004 73.02 15.9404 73.98 15.9404C75.36 15.9404 76.2001 12.9404 81.8401 12.9404C87.0601 12.9404 91.38 17.3204 91.38 23.1404C91.38 23.8004 90.8401 24.3404 90.1801 24.3404H87.12C86.46 24.3404 85.9201 23.8004 85.9201 23.1404C85.9201 20.2604 84.0601 18.3404 80.3401 18.3404C76.6201 18.3404 73.44 20.6204 73.44 25.9004Z" fill="#FFF3E1"/>
<path d="M106.433 25.9004V42.3404C106.433 43.0004 105.893 43.5404 105.233 43.5404H102.233C101.573 43.5404 101.033 43.0004 101.033 42.3404V14.7404C101.033 14.0804 101.573 13.5404 102.233 13.5404H104.573C104.933 13.5404 105.293 13.6604 105.413 13.9604C105.773 14.8004 106.013 15.9404 106.973 15.9404C108.353 15.9404 109.193 12.9404 114.833 12.9404C120.053 12.9404 124.373 17.3204 124.373 23.1404C124.373 23.8004 123.833 24.3404 123.173 24.3404H120.113C119.453 24.3404 118.913 23.8004 118.913 23.1404C118.913 20.2604 117.053 18.3404 113.333 18.3404C109.613 18.3404 106.433 20.6204 106.433 25.9004Z" fill="#FFF3E1"/>
<path d="M133.432 39.1604C131.392 36.1004 131.212 32.7404 131.212 28.5404C131.212 24.3404 131.392 20.9804 133.432 17.9204C135.472 14.8604 138.952 12.9404 143.632 12.9404C148.312 12.9404 151.792 14.8604 153.832 17.9204C155.872 20.9804 156.052 24.3404 156.052 28.5404C156.052 32.7404 155.872 36.1004 153.832 39.1604C151.792 42.2204 148.312 44.1404 143.632 44.1404C138.952 44.1404 135.472 42.2204 133.432 39.1604ZM149.152 35.9204C150.232 34.3004 150.472 32.0204 150.472 28.5404C150.472 25.0604 150.232 22.7804 149.152 21.1604C148.192 19.7204 146.332 18.3404 143.632 18.3404C140.932 18.3404 139.072 19.7204 138.112 21.1604C137.032 22.7804 136.792 25.0604 136.792 28.5404C136.792 32.0204 137.032 34.3004 138.112 35.9204C139.072 37.3604 140.932 38.7404 143.632 38.7404C146.332 38.7404 148.192 37.3604 149.152 35.9204Z" fill="#FFF3E1"/>
</svg>
